<svg xmlns="http://www.w3.org/2000/svg" width="30" height="29.994" viewBox="0 0 30 29.994"><g transform="translate(0 -0.05)"><g transform="translate(0 11.477)"><path d="M7.646,187.75H1.094A1.1,1.1,0,0,0,0,188.844v16.379a1.094,1.094,0,0,0,1.094,1.094H7.646a1.094,1.094,0,0,0,1.094-1.094V188.844A1.094,1.094,0,0,0,7.646,187.75Z" transform="translate(0 -187.75)" fill="#ffffff"/></g><g transform="translate(10.63 0.05)"><g transform="translate(0 0)"><path d="M178.346.05h-6.551A1.082,1.082,0,0,0,170.7,1.117V28.971a1.083,1.083,0,0,0,1.094,1.073h6.551a1.083,1.083,0,0,0,1.094-1.073V1.123A1.083,1.083,0,0,0,178.346.05Z" transform="translate(-170.7 -0.05)" fill="#ffffff"/></g></g><g transform="translate(21.26 8.201)"><path d="M349.046,136.55h-6.551a1.09,1.09,0,0,0-1.094,1.094V157.3a1.094,1.094,0,0,0,1.094,1.094h6.551a1.094,1.094,0,0,0,1.094-1.094V137.644A1.094,1.094,0,0,0,349.046,136.55Z" transform="translate(-341.4 -136.55)" fill="#ffffff"/></g></g></svg>