<svg xmlns="http://www.w3.org/2000/svg" width="30" height="22.852" viewBox="0 0 30 22.852"><g transform="translate(0 -61)"><g transform="translate(1.519 61)"><g transform="translate(0 0)"><path d="M51.555,61H26.85a2.586,2.586,0,0,0-1.129.266L39.144,74.8l3.008-2.916h0L52.684,61.267A2.586,2.586,0,0,0,51.555,61Z" transform="translate(-25.721 -61)" fill="#ffffff"/></g></g><g transform="translate(19.739 62.519)"><g transform="translate(0 0)"><path d="M348.208,86.728l-10,9.907,9.995,9.907a2.585,2.585,0,0,0,.266-1.128V87.856A2.585,2.585,0,0,0,348.208,86.728Z" transform="translate(-338.213 -86.728)" fill="#ffffff"/></g></g><g transform="translate(0 62.519)"><g transform="translate(0 0)"><path d="M.266,86.721A2.584,2.584,0,0,0,0,87.849v17.558a2.585,2.585,0,0,0,.266,1.128l10-9.907Z" transform="translate(0 -86.721)" fill="#ffffff"/></g></g><g transform="translate(1.518 73.59)"><g transform="translate(0 0)"><path d="M42.767,277.211l-3.009,2.916a.872.872,0,0,1-1.242,0l-2.892-2.917-9.911,9.995a2.586,2.586,0,0,0,1.129.267H51.548a2.586,2.586,0,0,0,1.129-.266Z" transform="translate(-25.714 -277.211)" fill="#ffffff"/></g></g></g></svg>