<?xml version="1.0" encoding="utf-8"?>
<!-- Generator: Adobe Illustrator 24.0.0, SVG Export Plug-In . SVG Version: 6.00 Build 0)  -->
<svg version="1.1" id="Capa_1" xmlns="http://www.w3.org/2000/svg" xmlns:xlink="http://www.w3.org/1999/xlink" x="0px" y="0px"
	 viewBox="0 0 248 371.9" style="enable-background:new 0 0 248 371.9;" xml:space="preserve">
<style type="text/css">
	.st0{fill:#FFFFFF;}
</style>
<g>
	<g>
		<path class="st0" d="M5.8,261.5l104,104.5c0,0,0,0,0,0c7.8,7.8,20.5,7.8,28.3,0c0,0,0,0,0,0l104-104.5c7.8-7.8,7.8-20.5-0.1-28.3
			c-7.8-7.8-20.5-7.8-28.3,0.1L144,303.4V20c0-11-9-20-20-20s-20,9-20,20v283.4l-69.8-70.2c-7.8-7.8-20.5-7.9-28.3-0.1
			C-1.9,241-2,253.7,5.8,261.5z"/>
	</g>
</g>
</svg>
