<svg xmlns="http://www.w3.org/2000/svg" width="30" height="29.976" viewBox="0 0 30 29.976"><g transform="translate(0 -0.05)"><circle cx="4.516" cy="4.516" r="4.516" transform="translate(0.068 20.948)" fill="#ffffff"/><path d="M15.129,54.337a2.258,2.258,0,0,0,4.516,0A17.409,17.409,0,0,0,2.258,36.95a2.258,2.258,0,1,0,0,4.516A12.88,12.88,0,0,1,15.129,54.337Z" transform="translate(0 -26.569)" fill="#ffffff"/><path d="M27.658,30.026a2.427,2.427,0,0,0,2.419-2.419A27.59,27.59,0,0,0,2.519.05a2.419,2.419,0,1,0,0,4.839A22.737,22.737,0,0,1,25.238,27.606,2.411,2.411,0,0,0,27.658,30.026Z" transform="translate(-0.077)" fill="#ffffff"/></g></svg>