<svg xmlns="http://www.w3.org/2000/svg" xmlns:xlink="http://www.w3.org/1999/xlink" width="65.849" height="44.309" viewBox="0 0 65.849 44.309"><defs><linearGradient id="a" y1="1.751" x2="1.734" y2="1" gradientUnits="objectBoundingBox"><stop offset="0" stop-color="#b04c7a"/><stop offset="1" stop-color="#e79c82"/></linearGradient></defs><g transform="translate(-0.062 -0.745)"><path d="M65.047,5.943,55.082.961,54.65.745l-.433.217L44.25,5.944l-.865.433-10.4,5.2h0l-10.4-5.2-.867-.434L11.756.961,11.325.745l-.434.217L.926,5.944.3,6.257l-.238.116V39.417l.238.125.627.313,9.967,4.984.43.215.433-.217,9.969-4.984.863-.432,10.4-5.2h0l10.4,5.2.867.433,9.965,4.983.431.216.434-.217,9.965-4.983.627-.312.238-.116V6.382l-.238-.125Zm-32.061,6.6h0l.967-.484,9.428-4.714.865-.433L54.217,1.93l.433-.217.432.216,9.432,4.715-9.432,4.711-.865.432L44.25,16.766l-1.426.711-9.838,4.962-.922.46L22.18,27.837l-.967.483-9.334,4.66V23.127l10.3-5.166.168-.084h0l.8-.4,9.835-4.934ZM10.891,1.93l.434-.217.431.216,9.965,4.983.867.434,9.428,4.714L22.19,17l-.469-.234-9.965-4.979-.865-.432-9.43-4.71ZM65.047,38.455l-.535.7-9.43,4.714-.434.217-.431-.216-9.965-4.983-.867-.434-9.428-4.714,9.428-4.729.411-.217,10.421,5.22.865.432V22.176h0l-.535.265-.33.166-.58.291-9.844,4.939-.168.084h0l-.8.4-9.84,4.934-.968.483-9.428,4.715-.863.432-9.969,4.984-.433.217-.43-.215L1.459,39.155l-.533-.7V7.344l9.965,4.977.865.433,9.455,4.723-10.32,5.2h0V34.443l.863-.431,9.969-4.98,1.424-.711,9.837-4.914.922-.508,9.885-4.937.969-.483,9.455-4.724.865-.433,9.965-4.978ZM44.762,28.321l9.423-4.708v9.413Z" fill="#313445"/><path d="M11.756,11.786l9.965,4.979L22.19,17l9.826-4.939L22.588,7.346l-.867-.434L11.756,1.929l-.432-.216-.434.217L1.461,6.644l9.43,4.71Z" fill="url(#a)"/><path d="M54.217,12.755l-9.455,4.724-.969.483L33.908,22.9l-.922.508-9.837,4.914-1.424.711-9.969,4.979-.863.432V22.679h0l10.32-5.2-9.455-4.724-.865-.433L.926,7.344V38.455l.533.7,9.434,4.716.43.215.434-.217,9.969-4.984.863-.432,9.427-4.715.969-.483,9.84-4.934.8-.4h0l.168-.084L53.637,22.9l.58-.291.33-.166.535-.266h0v12.27l-.865-.433-9.965-4.978L43.8,28.8l-9.839,4.946,9.428,4.714.867.434,9.965,4.983.432.216.434-.217,9.43-4.714.535-.7V7.344l-9.965,4.978Z" fill="url(#a)"/><path d="M22.35,17.878h0l-.168.084-10.3,5.166V32.98l9.334-4.66.967-.483L32.064,22.9l.922-.461,9.838-4.961,1.426-.712,9.967-4.979.865-.433,9.432-4.711L55.082,1.929l-.432-.216-.434.217L44.25,6.913l-.865.433-9.428,4.715-.967.483h0l-9.836,4.935Z" fill="url(#a)"/><path d="M44.762,28.321l9.423-4.708v9.413Z" fill="url(#a)"/></g></svg>